<?xml version="1.0" encoding="utf-8"?>
<!-- Generator: Adobe Illustrator 18.0.0, SVG Export Plug-In . SVG Version: 6.00 Build 0)  -->
<!DOCTYPE svg PUBLIC "-//W3C//DTD SVG 1.1//EN" "http://www.w3.org/Graphics/SVG/1.1/DTD/svg11.dtd">
<svg version="1.1" id="Layer_1" xmlns="http://www.w3.org/2000/svg" xmlns:xlink="http://www.w3.org/1999/xlink" x="0px" y="0px"
	 viewBox="0 0 100 100" enable-background="new 0 0 100 100" xml:space="preserve">
<path fill="#FFFFFF" d="M78.8,50.7H21.6v-40h57.2V50.7z M22.6,49.7h55.2v-38H22.6V49.7z"/>
<path fill="#FFFFFF" d="M21.5,50.5v39h57.4v-39H21.5z M35,61.8c2.3,0,4.1,1.8,4.1,4c0,2.2-1.8,4-4.1,4c-2.3,0-4.1-1.8-4.1-4
	C30.9,63.6,32.8,61.8,35,61.8z M41.6,79.1H28.5v-2.3c0-3.2,2.7-5.9,6-5.9h1.1c3.3,0,6,2.6,6,5.9V79.1z M69.9,77.5H47.3v-2h22.6V77.5
	z M69.9,70.9H47.3v-2h22.6V70.9z M69.9,65.9H47.3v-2h22.6V65.9z"/>
</svg>
