<?xml version="1.0" encoding="utf-8"?>
<!-- Generator: Adobe Illustrator 18.0.0, SVG Export Plug-In . SVG Version: 6.00 Build 0)  -->
<!DOCTYPE svg PUBLIC "-//W3C//DTD SVG 1.1//EN" "http://www.w3.org/Graphics/SVG/1.1/DTD/svg11.dtd">
<svg version="1.1" id="Layer_1" xmlns="http://www.w3.org/2000/svg" xmlns:xlink="http://www.w3.org/1999/xlink" x="0px" y="0px"
	 viewBox="0 0 80 80" enable-background="new 0 0 80 80" xml:space="preserve">
<g>
	<g>
		<g>
			<path fill-rule="evenodd" clip-rule="evenodd" fill="#F89C21" d="M40.5,11.8C25.3,11.8,13,24.1,13,39.3c0,5.2,1.4,10.1,3.9,14.2
				l-5,14.8l15.2-4.9c3.9,2.2,8.5,3.4,13.3,3.4C55.7,66.8,68,54.5,68,39.3C68,24.1,55.7,11.8,40.5,11.8z M40.5,62.4
				c-4.7,0-9.1-1.4-12.7-3.8l-8.9,2.8l2.9-8.6c-2.8-3.8-4.4-8.5-4.4-13.6c0-12.8,10.4-23.1,23.1-23.1c12.7,0,23.1,10.4,23.1,23.1
				C63.6,52,53.3,62.4,40.5,62.4z"/>
		</g>
	</g>
	<path fill-rule="evenodd" clip-rule="evenodd" fill="#F89C21" d="M34.1,27.9c-0.4-1.1-0.8-1.1-1.5-1.1c-0.2,0-0.5,0-0.8,0
		c-0.9,0-1.8,0.3-2.4,0.8c-0.7,0.7-2.4,2.3-2.4,5.6c0,3.3,2.4,6.5,2.8,7c0.3,0.4,4.7,7.4,11.5,10.2c5.3,2.2,6.9,2,8.1,1.7
		c1.8-0.4,4-1.7,4.5-3.3c0.6-1.6,0.6-2.9,0.4-3.2c-0.2-0.3-0.6-0.4-1.3-0.8c-0.7-0.3-4-2-4.6-2.2c-0.6-0.2-1.2-0.2-1.7,0.5
		C46.2,44,45.5,45,45,45.5c-0.4,0.4-1.1,0.5-1.6,0.3c-0.7-0.3-2.8-1.1-5.4-3.3c-2-1.8-3.4-4-3.7-4.7c-0.4-0.7,0-1.1,0.3-1.4
		c0.3-0.4,0.7-0.7,1-1.1c0.3-0.4,0.5-0.6,0.8-1.1c0.2-0.4,0.1-0.9-0.1-1.3C36,32.6,34.6,29.2,34.1,27.9z"/>
</g>
</svg>
